<svg height="512" viewBox="0 0 48 48" width="512" xmlns="http://www.w3.org/2000/svg"><g id="flat_final" data-name="flat final"><circle cx="24" cy="24" fill="#d13924" r="16.103"/><path d="m10.314 9.253a.731.731 0 0 0 -.12-.079 1.948 1.948 0 1 0 -1.02 1.02.731.731 0 0 0 .079.12l2.83 2.83a.75.75 0 0 0 1.061-1.061z" fill="#d13924"/><path d="m38.826 37.806a.731.731 0 0 0 -.079-.12l-2.83-2.83a.75.75 0 1 0 -1.061 1.061l2.83 2.83a.731.731 0 0 0 .12.079 1.948 1.948 0 1 0 1.02-1.02z" fill="#d13924"/><path d="m8.251 27.443-3.865 1.036a.738.738 0 0 0 -.129.064 1.947 1.947 0 1 0 .373 1.4.73.73 0 0 0 .145-.019l3.865-1.031a.751.751 0 0 0 -.389-1.45z" fill="#d13924"/><path d="m47.183 17.788a1.946 1.946 0 0 0 -3.813.275.707.707 0 0 0 -.145.009l-3.865 1.035a.75.75 0 0 0 .194 1.475.779.779 0 0 0 .2-.025l3.865-1.036a.738.738 0 0 0 .129-.064 1.946 1.946 0 0 0 3.44-1.669z" fill="#d13924"/><path d="m20.026 38.83a.753.753 0 0 0 -.919.53l-1.035 3.865a.707.707 0 0 0 -.009.145 1.947 1.947 0 1 0 1.4.376.786.786 0 0 0 .06-.132l1.036-3.865a.751.751 0 0 0 -.533-.919z" fill="#d13924"/><path d="m30.212.817a1.946 1.946 0 0 0 -1.668 3.44.678.678 0 0 0 -.065.129l-1.036 3.865a.751.751 0 0 0 .531.919.724.724 0 0 0 .194.026.751.751 0 0 0 .725-.556l1.035-3.865a.707.707 0 0 0 .009-.145 1.946 1.946 0 0 0 .275-3.813z" fill="#d13924"/><path d="m24.989 7.927a16.1 16.1 0 0 0 .271 32.127 16.1 16.1 0 0 0 -.271-32.127z" fill="#db4340"/><g fill="#e75457"><circle cx="14.136" cy="24.805" r="2.369"/><circle cx="24" cy="33.05" r="4.092"/><circle cx="22.681" cy="14.006" r="2.772"/><circle cx="33.245" cy="18.685" r="2.183"/><circle cx="25.035" cy="22.436" r="1.551"/><circle cx="33.245" cy="30.509" r="1.551"/><path d="m39.6 10.372a1.45 1.45 0 0 0 -2.051-2.05 1.434 1.434 0 0 0 -.25 1.673l-3.126 3.126a.5.5 0 1 0 .707.707l3.142-3.142a1.448 1.448 0 0 0 1.578-.314z"/><path d="m13.136 34.157-3.142 3.143a1.45 1.45 0 1 0 .472 2.365 1.435 1.435 0 0 0 .251-1.674l3.126-3.126a.5.5 0 1 0 -.707-.707z"/><path d="m19.49 5.2a1.458 1.458 0 1 0 -.956.293l1.14 4.257a.5.5 0 0 0 .483.371.489.489 0 0 0 .13-.017.5.5 0 0 0 .353-.604z"/><path d="m29.481 42.489-1.141-4.258a.5.5 0 0 0 -.966.259l1.15 4.291a1.459 1.459 0 1 0 .957-.292z"/><path d="m9.51 20.626a.484.484 0 0 0 .13.017.5.5 0 0 0 .129-.983l-4.291-1.15a1.459 1.459 0 1 0 -.226.975z"/><path d="m44.349 27.884a1.445 1.445 0 0 0 -1.587.617l-4.262-1.141a.5.5 0 1 0 -.258.966l4.291 1.149a1.45 1.45 0 1 0 1.812-1.591z"/></g></g><g id="outine" fill="#1e1e14"><path d="m22.025 8.773a15.391 15.391 0 0 1 5.91.378c.014.005.024.016.039.019s.037 0 .056.008a15.252 15.252 0 0 1 5.27 2.6.75.75 0 1 0 .91-1.193 16.747 16.747 0 0 0 -5.13-2.645l.683-2.549a2.7 2.7 0 1 0 -2.663-3.391 2.693 2.693 0 0 0 1.215 3l-.685 2.557a16.9 16.9 0 0 0 -5.8-.266.75.75 0 1 0 .191 1.487zm6.525-6.384a1.2 1.2 0 0 1 1.468-.847 1.2 1.2 0 0 1 -.62 2.314 1.2 1.2 0 0 1 -.848-1.467z"/><path d="m25.982 39.226a15.388 15.388 0 0 1 -5.916-.377c-.015 0-.025-.015-.04-.019a.245.245 0 0 0 -.027 0 15.279 15.279 0 0 1 -5.239-2.564.75.75 0 1 0 -.9 1.2 16.777 16.777 0 0 0 5.061 2.609l-.682 2.546a2.662 2.662 0 0 0 -2.553 1.979 2.7 2.7 0 0 0 1.908 3.3 2.691 2.691 0 0 0 2.09-4.9l.684-2.551a16.8 16.8 0 0 0 3.6.4 17.062 17.062 0 0 0 2.2-.142.75.75 0 1 0 -.192-1.487zm-6.532 6.385a1.2 1.2 0 0 1 -1.468.847 1.2 1.2 0 0 1 -.847-1.466 1.2 1.2 0 0 1 2.315.62z"/><path d="m8.406 11.1a2.669 2.669 0 0 0 1.294-.339l1.878 1.878a16.687 16.687 0 0 0 -3.129 4.861.749.749 0 0 0 .4.981.734.734 0 0 0 .288.058.751.751 0 0 0 .693-.461 15.412 15.412 0 0 1 8.3-8.266.75.75 0 1 0 -.572-1.387 16.741 16.741 0 0 0 -4.923 3.158l-1.874-1.883a2.664 2.664 0 0 0 -.447-3.2 2.7 2.7 0 1 0 -1.908 4.6zm-.847-3.541a1.2 1.2 0 1 1 1.694 1.694 1.224 1.224 0 0 1 -1.694 0 1.2 1.2 0 0 1 0-1.694z"/><path d="m38.307 37.246-1.885-1.885a16.709 16.709 0 0 0 3.116-4.822.75.75 0 1 0 -1.383-.581 15.414 15.414 0 0 1 -8.214 8.2.75.75 0 0 0 .58 1.384 16.714 16.714 0 0 0 4.84-3.123l1.878 1.881a2.692 2.692 0 0 0 4.261 3.2 2.7 2.7 0 0 0 0-3.815 2.764 2.764 0 0 0 -3.193-.439zm2.134 3.2a1.2 1.2 0 0 1 -2.045-.847 1.2 1.2 0 0 1 2.045-.847 1.2 1.2 0 0 1 0 1.689z"/><path d="m7.941 29.08a16.757 16.757 0 0 0 2.626 5.1.75.75 0 0 0 1.194-.908 15.269 15.269 0 0 1 -2.588-5.259c0-.013 0-.027 0-.04s-.011-.02-.015-.032a15.4 15.4 0 0 1 -.394-5.841.75.75 0 0 0 -1.489-.184 16.889 16.889 0 0 0 .279 5.713l-2.554.687a2.7 2.7 0 0 0 -3-1.216 2.7 2.7 0 0 0 -.65 4.943 2.67 2.67 0 0 0 1.344.363 2.719 2.719 0 0 0 .7-.093 2.664 2.664 0 0 0 1.989-2.549zm-4.2 1.227a1.2 1.2 0 1 1 .12-.91 1.189 1.189 0 0 1 -.125.91z"/><path d="m47.908 17.594a2.7 2.7 0 0 0 -3.3-1.908 2.665 2.665 0 0 0 -1.988 2.549l-2.557.685a16.743 16.743 0 0 0 -2.593-5.059.75.75 0 1 0 -1.2.9 15.271 15.271 0 0 1 2.559 5.222v.039a.221.221 0 0 0 .012.027 15.4 15.4 0 0 1 .405 5.758.75.75 0 0 0 .656.833c.03 0 .06.005.089.005a.75.75 0 0 0 .744-.662 16.9 16.9 0 0 0 -.29-5.617l2.555-.681a2.693 2.693 0 0 0 4.908-2.091zm-2.3 1.856a1.2 1.2 0 0 1 -1.468-.847 1.2 1.2 0 0 1 .847-1.467 1.2 1.2 0 0 1 .62 2.315z"/><path d="m33.995 12.944a.75.75 0 1 0 1.061 1.061l2.644-2.644a2.207 2.207 0 1 0 -1.085-1.036zm4.084-4.092a.7.7 0 1 1 0 .99.7.7 0 0 1 0-.99z"/><path d="m14.02 35.041a.75.75 0 1 0 -1.061-1.061l-2.644 2.644a2.2 2.2 0 0 0 -2.43.458 2.2 2.2 0 1 0 3.516.577zm-4.084 4.092a.7.7 0 1 1 0-.99.7.7 0 0 1 0 .99z"/><path d="m18.475 6.244.958 3.575a.75.75 0 0 0 .724.556.765.765 0 0 0 .194-.025.752.752 0 0 0 .531-.919l-.968-3.612a2.2 2.2 0 0 0 .818-2.333 2.2 2.2 0 1 0 -2.257 2.759zm-.05-2.865a.709.709 0 0 1 .181-.024.7.7 0 1 1 -.181.024z"/><path d="m30.508 42.025a2.179 2.179 0 0 0 -.968-.282l-.958-3.576a.751.751 0 1 0 -1.45.388l.967 3.609a2.195 2.195 0 0 0 -.817 2.336 2.2 2.2 0 0 0 2.118 1.631 2.249 2.249 0 0 0 .573-.075 2.2 2.2 0 0 0 .531-4.031zm-.494 2.256a.7.7 0 1 1 -.787-1.027.7.7 0 0 1 .856.5.7.7 0 0 1 -.069.527z"/><path d="m3.471 20.826a2.2 2.2 0 0 0 2.4-.915l3.57.957a.767.767 0 0 0 .2.025.75.75 0 0 0 .193-1.475l-3.611-.967a2.2 2.2 0 0 0 -1.613-1.876 2.2 2.2 0 1 0 -1.139 4.251zm-.107-2.306a.7.7 0 1 1 .5.857.7.7 0 0 1 -.5-.857z"/><path d="m44.543 27.16a2.168 2.168 0 0 0 -2.4.916l-3.577-.958a.75.75 0 1 0 -.388 1.449l3.612.968a2.2 2.2 0 0 0 1.61 1.875 2.2 2.2 0 0 0 1.138-4.25zm.107 2.306a.7.7 0 1 1 -.495-.857.7.7 0 0 1 .495.857z"/><path d="m11.017 24.806a3.12 3.12 0 1 0 3.119-3.12 3.123 3.123 0 0 0 -3.119 3.12zm4.739 0a1.62 1.62 0 1 1 -1.62-1.62 1.622 1.622 0 0 1 1.62 1.62z"/><path d="m24 37.892a4.842 4.842 0 1 0 -4.842-4.842 4.847 4.847 0 0 0 4.842 4.842zm0-8.184a3.342 3.342 0 1 1 -3.342 3.342 3.346 3.346 0 0 1 3.342-3.342z"/><path d="m22.681 10.483a3.523 3.523 0 1 0 3.519 3.523 3.526 3.526 0 0 0 -3.519-3.523zm0 5.545a2.023 2.023 0 1 1 2.019-2.022 2.024 2.024 0 0 1 -2.019 2.022z"/><path d="m33.245 15.751a2.934 2.934 0 1 0 2.933 2.934 2.936 2.936 0 0 0 -2.933-2.934zm0 4.367a1.434 1.434 0 1 1 1.433-1.433 1.435 1.435 0 0 1 -1.433 1.433z"/><path d="m22.734 22.436a2.3 2.3 0 1 0 2.3-2.3 2.3 2.3 0 0 0 -2.3 2.3zm3.1 0a.8.8 0 1 1 -.8-.8.8.8 0 0 1 .802.8z"/><path d="m33.245 28.208a2.3 2.3 0 1 0 2.3 2.3 2.3 2.3 0 0 0 -2.3-2.3zm0 3.1a.8.8 0 1 1 .8-.8.8.8 0 0 1 -.8.802z"/></g></svg>